<?xml version="1.0" encoding="utf-8"?>
<!-- Generator: Adobe Illustrator 17.0.0, SVG Export Plug-In . SVG Version: 6.00 Build 0)  -->
<!DOCTYPE svg PUBLIC "-//W3C//DTD SVG 1.1//EN" "http://www.w3.org/Graphics/SVG/1.1/DTD/svg11.dtd">
<svg version="1.1" id="Layer_1" xmlns="http://www.w3.org/2000/svg" xmlns:xlink="http://www.w3.org/1999/xlink" x="0px" y="0px"
	 width="960px" height="560px" viewBox="0 0 960 560" enable-background="new 0 0 960 560" xml:space="preserve">
<g>
	<path fill="none" stroke="#000000" stroke-width="9" stroke-miterlimit="10" d="M949.073,342.355
		c0-76.411-51.224-140.75-121.506-160.049C804.587,82.396,715.312,7.889,608.425,7.889c-85.922,0-160.485,48.152-198.411,118.936
		c-25.069-22.297-58.036-35.849-94.225-35.849c-58.437,0-108.591,35.322-130.349,85.776c-3.607-0.234-7.23-0.366-10.896-0.366
		c-91.662,0-165.962,74.307-165.962,165.969S82.248,508.324,173.91,508.324c0.077,0-0.41-0.003-0.41-0.003v1.179h609v-1.179
		C876.5,508.197,949.073,433.94,949.073,342.355z"/>
	<text transform="matrix(1 0 0 1 102.1152 392.6367)" font-family="'Geneva'" font-size="147.3233">NodeCloud</text>
</g>
</svg>
